<svg width="12" height="8" viewBox="0 0 12 8" fill="none" xmlns="http://www.w3.org/2000/svg">
<path d="M11.7633 0.160035C11.6967 0.102672 11.6193 0.0591786 11.5357 0.0321058C11.4521 0.00503293 11.364 -0.00507408 11.2764 0.00237738C11.1889 0.00982883 11.1037 0.034689 11.0259 0.0754994C10.9481 0.11631 10.8792 0.172249 10.8233 0.240035C9.25025 2.12804 6.99825 4.63204 6.00826 5.72504L1.16525 0.228035C1.10741 0.162159 1.03708 0.108408 0.958321 0.0698947C0.879566 0.0313808 0.793954 0.00886855 0.706441 0.00366054C0.618928 -0.00154746 0.531251 0.010652 0.448484 0.0395535C0.365717 0.068455 0.289504 0.113484 0.224255 0.172036C0.0918094 0.291168 0.011657 0.457703 0.00117419 0.635536C-0.00930859 0.813369 0.0507232 0.988167 0.168255 1.12204L5.34525 6.99804C5.45525 7.12304 5.57525 7.23204 5.73325 7.28904C5.90325 7.35004 6.08825 7.35104 6.25826 7.29304C6.41078 7.23394 6.54546 7.13646 6.64925 7.01004C7.32425 6.26904 10.0243 3.28904 11.8433 1.10804C11.957 0.971313 12.0123 0.795339 11.9974 0.618139C11.9824 0.440939 11.8983 0.275744 11.7633 0.160035Z" fill="white"/>
</svg>
