<svg width="352" height="406" viewBox="0 0 352 406" fill="none" xmlns="http://www.w3.org/2000/svg">
<g filter="url(#filter0_d_55_2149)">
<path d="M286.887 310.073L285.844 321.656L325.995 344.821L331.731 344.013L337.989 341.05L340.857 338.087L341.117 335.393L339.032 332.969L336.164 332.43L330.688 333.239L326.778 334.855H324.431L330.428 330.276L335.382 325.158L338.51 320.848L340.075 316.538L339.032 314.922L336.946 313.575L333.817 313.036L328.863 315.46L323.91 319.108L317.913 324.349L321.302 318.693L323.388 313.306L323.91 310.881L324.431 307.11L323.91 304.955L323.388 303.608L322.606 302.262L320.781 301.453L318.435 300.645L314.524 302.262L311.395 306.571L309.049 311.689L306.702 317.615C305.572 319.052 303.26 322.195 303.052 322.195C302.843 322.195 298.967 324.17 297.055 325.158L299.141 317.615L300.184 309.804L299.141 306.033L297.316 302.531L293.927 300.107L291.58 300.915L289.234 302.262L287.409 305.225L286.887 310.073Z" fill="white"/>
<path d="M177.644 155.07L198.241 171.77L216.231 169.346L231.614 174.194L245.171 184.969L251.69 204.633V226.721L245.171 245.307L234.743 262.816C231.092 265.779 223.479 271.705 222.228 271.705C220.664 271.705 206.324 277.361 205.281 277.361C204.447 277.361 194.331 275.925 189.377 275.207L174.255 271.705L187.03 290.83L189.377 309.685L185.205 325.847H96.5597V265.24L106.206 259.314L117.678 254.735L132.8 250.964L117.678 238.303L109.857 220.525L112.724 193.589L123.675 174.194L140.883 160.187L159.394 151.568L177.644 155.07Z" fill="white"/>
<path fill-rule="evenodd" clip-rule="evenodd" d="M109.508 170.125C113.228 161.186 122.118 156.524 130.309 153.064C128.406 152.876 126.937 152.947 125.106 153.035L125.089 153.036C124.898 153.045 124.698 153.055 124.497 153.064C132.608 144.935 143.361 143.119 154.022 141.318C154.362 141.261 154.704 141.203 155.044 141.145C152.512 140.453 151.297 140.305 149.08 140.034C148.752 139.994 148.402 139.952 148.023 139.904C156.783 134.28 171.951 135.334 181.403 138.959C177.842 134.674 175.937 133.415 173.685 131.927C172.347 131.043 170.887 130.078 168.885 128.349C179.139 128.704 186.131 132.98 193.501 139.904C190.624 131.341 186.23 125.686 179.727 119.783C191.769 125.469 197.404 131.479 200.198 144.603C209.231 138.112 210.233 135.151 212.597 128.17C213.12 126.625 213.711 124.881 214.47 122.859C214.366 123.819 214.274 124.721 214.188 125.573L214.187 125.585C213.361 133.722 212.992 137.354 206.882 144.603C220.152 139.946 227.466 137.768 241.635 142.562C240.328 142.617 239.03 142.655 237.74 142.693C229.77 142.925 222.105 143.149 214.47 147.407C227.963 149.068 238.717 150.412 248.869 161.127L248.6 161.009L248.241 160.852L247.831 160.673C241.489 157.896 234.707 154.927 227.802 155.08L227.829 155.09C233.721 157.154 238.901 158.97 243.252 163.961C242.868 163.837 242.456 163.701 242.029 163.56C240.513 163.06 238.803 162.495 237.45 162.19C247.038 168.15 252.246 173.325 257.208 183.628C256.373 183.154 255.648 182.682 254.945 182.225C253.711 181.423 252.546 180.665 250.983 180.025L250.497 179.822L250.202 179.709C256.745 186.944 261.5 199.444 262.016 209.266C261.404 208.077 260.775 206.909 260.146 205.741C259.64 204.801 259.135 203.863 258.639 202.914C259.011 207.138 259.57 211.143 260.128 215.133C261.024 221.552 261.916 227.94 262.016 235.164C259.396 231.655 258.753 230.246 257.208 226.093C257.662 242.037 257.136 249.986 248.869 263.62C248.866 262.673 248.884 261.313 248.905 259.823C248.947 256.684 248.998 252.961 248.869 251.262C248.257 252.926 247.712 254.498 247.19 256.002C244.828 262.811 242.944 268.245 237.45 274.708L237.459 274.49L237.472 274.201L237.492 273.734C237.596 271.324 237.693 269.084 238.087 266.642C233.455 273.732 227.628 280.617 220.455 285.063C220.467 285.022 220.479 284.979 220.491 284.934L220.517 284.843L220.546 284.738L220.598 284.552L220.655 284.344C221.025 283.011 221.577 281.016 221.985 280.223L221.802 280.36L221.636 280.483L221.495 280.589L221.156 280.843L221.135 280.858C218.812 282.6 217.366 283.684 214.47 285.063C222.334 301.68 226.8 322.106 221.157 340.147C235.581 346.004 250.778 350.516 265.951 343.608C273.533 340.156 285.401 321.032 285.401 321.032C285.401 321.032 286.201 316.159 286.254 313.334C286.351 308.092 286.452 302.592 291.03 300.36C295.216 298.319 298.192 302.403 299.644 305.961C301.512 310.534 300.454 314.52 299.348 318.685C298.868 320.493 298.379 322.334 298.117 324.272L298.423 324.388C299.078 323.917 299.664 323.479 300.218 323.065C301.922 321.792 303.331 320.74 305.513 319.628C310.832 319.114 314.226 321.182 317.972 324.62C318.04 324.91 318.109 325.202 318.178 325.494C318.585 327.211 318.997 328.952 319.232 330.688C320.974 331.604 322.431 332.381 324.097 333.427C329.462 333.562 348.371 313.382 334.067 313.532C329.43 314.664 326.878 317.071 324.121 319.671C322.356 321.336 320.506 323.08 317.972 324.62C318.775 323.832 319.532 322.832 320.222 321.688C324.055 318.066 331.626 313.131 334.067 312.506C348.435 315.792 334.755 326.779 328.337 331.933C326.777 333.186 325.645 334.094 325.451 334.464L325.578 334.862C326.432 335.005 327.836 334.449 329.485 333.797C332.824 332.476 337.168 330.757 339.987 333.631C346.425 340.197 333.165 344.468 328.723 344.578C328.885 344.518 329.097 344.438 329.341 344.346C330.446 343.928 332.199 343.265 332.85 343.149C346.659 338.07 339.331 331.478 334.067 333.427C330.621 333.744 329.135 333.916 326.121 335.981C327.689 339.464 328.048 340.779 328.723 344.578C324.873 360.78 305.884 378.603 292.337 385.649C268.002 398.303 235.581 398.716 209.855 390.354C205.756 383.09 193.772 363.618 169.227 324.638C169.761 324.692 173.62 323.34 176.916 322.185L176.927 322.182C178.899 321.491 180.672 320.87 181.403 320.666C184.84 306.297 186.209 295.242 178.516 281.43C170.936 270.047 167.604 268.77 159.102 265.511C156.897 264.666 154.344 263.687 151.279 262.364C148.478 261.155 145.343 259.114 142.313 257.141C139.361 255.219 136.509 253.362 134.163 252.403C127.308 254.173 114.369 259.755 108.436 262.315C106.591 263.111 105.424 263.614 105.327 263.62C105.314 263.621 105.302 263.681 105.291 263.795C105.308 259.244 105.317 246.76 105.314 221.713C105.314 221.382 105.314 221.932 105.314 221.691L105.314 221.62L105.314 220.952C105.314 220.674 105.314 221.151 105.314 220.879C105.313 217.802 105.314 214.944 105.316 212.293C105.347 212.232 105.352 212.186 105.327 212.157C105.325 212.185 105.323 212.213 105.321 212.243C105.321 212.091 105.314 212.004 105.301 211.973C105.269 211.769 105.186 212.037 105.072 212.601C104.8 212.887 104.35 213.281 103.834 213.731C102.473 214.92 100.658 216.506 100.485 217.547C100.528 215.359 101.721 212.353 102.986 209.162C104.482 205.392 106.08 201.363 106.007 198.118C106.007 198.118 105.74 186.146 105.633 183.682C107.387 180.878 114.378 171.136 119.891 165.866C115.218 166.944 113.468 167.427 109.508 170.125ZM100.487 217.854C100.484 217.754 100.483 217.651 100.485 217.547C100.467 217.656 100.467 217.758 100.487 217.854ZM105.124 212.545C105.215 212.445 105.281 212.36 105.316 212.293C105.316 212.14 105.311 212.034 105.301 211.973C105.271 211.902 105.209 212.124 105.124 212.545ZM318.221 324.009C318.153 324.172 318.092 324.318 318.041 324.445C318.016 324.508 317.993 324.567 317.972 324.62C318.01 324.437 318.095 324.233 318.221 324.009ZM323.777 311.805C323.187 315.274 321.902 318.904 320.222 321.688C319.294 322.565 318.585 323.365 318.221 324.009C318.934 322.314 320.512 318.849 321.153 317.604C322.109 315.744 323.119 313.78 323.777 311.805ZM323.746 304.448C323.831 304.608 323.908 304.773 323.974 304.942C324.837 307.143 324.551 309.481 323.777 311.805C324.238 309.093 324.275 306.48 323.746 304.448ZM323.746 304.448C322.379 301.896 318.704 300.673 316.285 302.152C311.544 305.05 308.751 312.873 306.787 318.371C306.708 318.593 306.416 318.811 306.129 319.025C305.857 319.228 305.59 319.427 305.515 319.622C305.709 319.103 305.915 318.536 306.132 317.94C308.284 312.035 311.619 302.884 316.466 301.069C320.67 299.494 322.911 301.249 323.746 304.448ZM158.219 156.333C134.014 159.315 110.115 191.158 112.28 214.865C115.265 247.566 159.254 268.675 186.566 272.016C191.407 272.608 196.726 272.572 201.715 272.538L201.759 272.538L201.797 272.538L201.831 272.538C202.085 272.536 202.339 272.534 202.591 272.533C202.774 272.531 202.955 272.53 203.137 272.529L203.322 272.528L203.656 272.527L203.878 272.526C212.464 272.098 225.55 269.317 231.471 262.085C242.665 247.721 249.143 226.868 249.18 208.503C249.198 200.048 241.457 188.872 235.619 183.436C223.651 172.291 214.927 172.893 201.386 173.828C199.901 173.93 198.358 174.036 196.746 174.132C186.023 161.504 174.919 155.072 158.219 156.333ZM292.613 300.867C287.592 302.387 287.295 308.297 287.019 313.778C286.909 315.96 286.802 318.073 286.403 319.815L286.284 320.348L286.265 320.421L286.247 320.494C286.233 320.551 286.219 320.608 286.205 320.666C289.303 320.775 291.836 321.308 294.796 322.292L297.037 323.421C299.346 317.217 302.502 301.781 292.613 300.867Z" fill="#423930"/>
<path d="M122.477 201.574C115.274 184.908 133.409 172.885 148.363 172.892C180.611 170.181 173.016 220.178 144.249 201.574C137.68 197.887 129.233 199.147 122.477 201.574ZM154.172 178.019C147.605 178.371 142.542 184.128 142.83 190.915C143.116 197.701 148.647 202.979 155.218 202.738C161.866 202.494 167.048 196.7 166.757 189.833C166.467 182.968 160.815 177.662 154.172 178.019Z" fill="#56514F"/>
<path d="M155.47 201.803C154.061 202.001 152.628 201.906 151.254 201.523C149.881 201.139 148.596 200.476 147.475 199.572C146.354 198.667 145.42 197.54 144.727 196.256C144.035 194.973 143.598 193.559 143.443 192.098C143.287 190.638 143.417 189.16 143.823 187.751C144.229 186.343 144.905 185.033 145.809 183.899C146.713 182.765 147.828 181.829 149.088 181.147C150.348 180.465 151.727 180.05 153.145 179.928C158.9 179.431 163.992 183.764 164.622 189.695C165.253 195.627 161.194 200.998 155.47 201.803ZM157.928 184.386C156.958 185.377 155.937 188.05 157.928 188.392C160.237 188.081 161.696 185.736 159.136 184.404L157.928 184.386Z" fill="#3A322B"/>
<path d="M226.587 243.243C220.16 238.366 212.772 237.059 206.315 232.637C191.865 222.74 193.881 203.204 212.331 200.155C228.01 198.857 236.625 211.309 236.868 226.517C237.036 237.034 235.689 239.321 231.14 248.621C229.508 245.787 229.025 245.338 226.587 243.243ZM213.95 204.765C193.712 206.132 195.897 231.415 216.16 229.671C236.769 225.81 230.386 202.469 213.95 204.765Z" fill="#56514F"/>
<path d="M145.213 212.736C150.754 223.777 159.633 229.583 170.314 234.493C171.351 231.879 172.709 228.699 173.631 226.093C168.812 223.177 163.957 219.267 162.433 213.456C158.36 195.464 193.13 201.726 194.321 215.717C195.197 226.006 181.766 228.602 174.753 226.093L172.353 234.493C181.631 240.184 194.03 241.482 204.072 237.426C188.307 250.806 148.238 233.597 145.213 212.736ZM173.631 209.266C173.239 208.085 173.582 208.496 172.753 207.847L172.538 208.055C172.89 208.78 172.987 208.76 173.631 209.266ZM187.055 212.736L186.295 213.974C186.675 214.473 186.447 214.271 187.055 214.486L187.609 213.38L187.432 212.869L187.055 212.736Z" fill="#504B59"/>
<path d="M214.828 229.671C194.044 227.374 198.607 206.784 211.66 205.575C225.473 204.378 233.165 221.26 214.828 229.671ZM217.645 212.157C214.722 214.644 215.98 216.523 219.175 217.395C221.075 215.201 221.307 211.991 217.645 212.157Z" fill="#3A322B"/>
<path d="M175.574 246.346C171.907 246.729 165.237 244.129 162.81 241.134C164.529 241.694 174.728 245.51 175.574 246.346Z" fill="#33261F"/>
<path fill-rule="evenodd" clip-rule="evenodd" d="M251.168 395.89C250.637 396.042 267.594 317.81 170.254 319.229C165.651 319.296 164.087 320.729 163.044 317.227C161.998 317.326 159.024 317.998 158.321 318.011H106.354V259.852C106.541 259.719 114.878 259.983 115.071 259.852C109.596 250.155 106.765 236.717 106.669 223.206L106.622 216.572C105.494 215.653 105.952 210.973 106.223 208.199C105.518 215.407 106.33 207.109 106.354 206.747C106.418 206.822 106.485 206.932 106.554 207.07C106.456 193.51 106.374 182.901 106.354 182.982C105.8 182.155 105.974 181.548 106.212 180.721C106.23 180.659 106.249 180.595 106.267 180.529C106.29 180.448 106.313 180.365 106.336 180.279C106.066 174.606 103.227 168.768 100.357 165.068C97.2916 161.115 94.1919 157.117 94.155 150.924C94.1365 147.82 95.3373 143.146 96.5286 138.509C97.6929 133.977 98.8482 129.48 98.848 126.517V90.96C94.9314 90.9528 87.3679 80.9807 79.7825 70.9797C72.1567 60.9254 64.5087 50.8419 60.5218 50.8248C49.6918 50.7785 41.8491 36.5912 35.4173 24.9563C29.3792 14.0335 24.5846 5.36022 19.7292 12.7482L10 187.393C10.001 187.534 12.0461 191.776 14.266 196.38C16.9002 201.844 19.7807 207.818 19.7846 208.058C19.799 208.952 17.0825 207.914 14.6301 206.978C12.6461 206.221 10.8349 205.529 10.7822 205.979C9.63806 205.876 10.3562 206.886 11.7871 208.899C14.4423 212.635 19.5518 219.823 19.7689 229.754C19.8342 232.743 16.9412 232.997 14.2871 233.231C12.0758 233.425 10.0304 233.606 10 235.34C10.5392 235.493 12.9062 241.851 15.2801 248.228C17.6695 254.647 20.066 261.085 20.6126 261.232C20.0134 273.461 20.3682 286.437 20.7171 299.199C20.7852 301.689 18.9585 302.002 17.3437 302.278C14.6598 302.737 12.561 303.096 20.7171 313.187C20.7599 319.471 22.368 324.222 23.9726 328.962C25.6025 333.777 27.2288 338.581 27.2077 344.972C27.1865 351.383 25.6928 360.66 24.1921 369.981C22.6424 379.606 21.0851 389.278 21.134 395.89H215.496H251.168Z" fill="#55AE43"/>
</g>
<defs>
<filter id="filter0_d_55_2149" x="0" y="0" width="351.719" height="406" filterUnits="userSpaceOnUse" color-interpolation-filters="sRGB">
<feFlood flood-opacity="0" result="BackgroundImageFix"/>
<feColorMatrix in="SourceAlpha" type="matrix" values="0 0 0 0 0 0 0 0 0 0 0 0 0 0 0 0 0 0 127 0" result="hardAlpha"/>
<feOffset/>
<feGaussianBlur stdDeviation="5"/>
<feComposite in2="hardAlpha" operator="out"/>
<feColorMatrix type="matrix" values="0 0 0 0 0 0 0 0 0 0 0 0 0 0 0 0 0 0 0.25 0"/>
<feBlend mode="normal" in2="BackgroundImageFix" result="effect1_dropShadow_55_2149"/>
<feBlend mode="normal" in="SourceGraphic" in2="effect1_dropShadow_55_2149" result="shape"/>
</filter>
</defs>
</svg>
