<svg width="13" height="14" viewBox="0 0 13 14" fill="none" xmlns="http://www.w3.org/2000/svg">
<path d="M6.93173 0.107476C6.79189 0.0368148 6.63741 0 6.48073 0C6.32405 0 6.16957 0.0368148 6.02973 0.107476C5.78473 0.230476 5.65173 0.466476 5.56873 0.635476C5.47873 0.817476 5.38373 1.06248 5.27273 1.34748L4.34473 3.73748C4.3232 3.79585 4.29985 3.85355 4.27473 3.91048V3.91248H4.27073C4.23473 3.91848 4.18473 3.92248 4.08673 3.93248L1.58273 4.14648C1.31073 4.17048 1.07273 4.19048 0.88773 4.22348C0.71173 4.25548 0.46973 4.31348 0.28773 4.49748C0.181703 4.60507 0.101429 4.73528 0.0529343 4.87834C0.00443956 5.0214 -0.0110154 5.17359 0.00772976 5.32348C0.0377298 5.57948 0.19373 5.77348 0.31473 5.90648C0.44073 6.04548 0.61673 6.20648 0.81773 6.39148L2.80473 8.21448L2.92973 8.33248L2.93173 8.33448V8.33748C2.92573 8.37048 2.91573 8.41648 2.89573 8.50548L2.30373 11.1655C2.24535 11.4067 2.19698 11.6502 2.15873 11.8955C2.13473 12.0795 2.11673 12.3405 2.24573 12.5755C2.32027 12.7111 2.42527 12.8276 2.55246 12.9157C2.67966 13.0039 2.82557 13.0613 2.97873 13.0835C3.24373 13.1215 3.48273 13.0115 3.64573 12.9235C3.86171 12.8016 4.07255 12.6708 4.27773 12.5315L6.31373 11.1995C6.39973 11.1435 6.44373 11.1145 6.47773 11.0955L6.48073 11.0935L6.48373 11.0955C6.51673 11.1145 6.56173 11.1435 6.64773 11.1995L8.68373 12.5315C8.92973 12.6925 9.14173 12.8315 9.31573 12.9245C9.47873 13.0115 9.71673 13.1215 9.98273 13.0835C10.1359 13.0613 10.2818 13.0039 10.409 12.9157C10.5362 12.8276 10.6412 12.7111 10.7157 12.5755C10.8457 12.3405 10.8257 12.0795 10.8027 11.8955C10.7645 11.6502 10.7161 11.4067 10.6577 11.1655L10.0657 8.50548C10.0457 8.41548 10.0357 8.37048 10.0307 8.33748V8.33448L10.0317 8.33248L10.1567 8.21448L12.1437 6.39148C12.3447 6.20648 12.5207 6.04548 12.6467 5.90648C12.7667 5.77348 12.9227 5.57948 12.9547 5.32348C12.9733 5.17351 12.9577 5.02128 12.9091 4.87821C12.8604 4.73515 12.7799 4.60498 12.6737 4.49748C12.4917 4.31448 12.2497 4.25548 12.0737 4.22348C11.8887 4.19048 11.6507 4.17048 11.3787 4.14648L8.87473 3.93148C8.81323 3.92737 8.75186 3.92136 8.69073 3.91348H8.68773L8.68573 3.91048C8.66096 3.85387 8.63795 3.79651 8.61673 3.73848L7.68873 1.34848C7.59928 1.10709 7.50054 0.869244 7.39273 0.635476C7.30973 0.465476 7.17673 0.230476 6.93273 0.106476" fill="#FFD200"/>
</svg>
